<svg id="svg" version="1.1" xmlns="http://www.w3.org/2000/svg" xmlns:xlink="http://www.w3.org/1999/xlink" width="400" height="400" viewBox="0, 0, 400,400"><g id="svgg"><path id="path0" d="M198.000 42.417 C 193.919 42.777,188.479 44.960,185.635 47.379 C 180.564 51.692,131.600 101.217,131.600 102.033 C 131.600 103.448,296.556 268.400,297.970 268.400 C 298.787 268.400,348.222 219.519,352.621 214.362 C 359.201 206.649,359.208 193.001,352.636 185.209 C 351.492 183.853,216.030 48.406,214.791 47.379 C 210.549 43.865,203.888 41.896,198.000 42.417 " stroke="none" fill="#83c3ea" fill-rule="evenodd"></path><path id="path1" d="M72.456 161.111 C 42.244 191.488,45.001 188.622,44.235 190.454 C 43.911 191.229,43.390 192.076,43.077 192.336 C 42.764 192.596,42.396 193.620,42.260 194.611 C 42.125 195.603,41.740 196.942,41.407 197.587 C 40.578 199.190,40.578 205.210,41.407 206.813 C 41.740 207.458,42.125 208.800,42.261 209.795 C 42.398 210.790,42.839 211.984,43.243 212.449 C 43.646 212.914,44.091 213.679,44.232 214.148 C 44.780 215.975,98.507 269.909,99.950 270.080 C 100.805 270.182,103.530 267.630,117.874 253.300 C 127.178 244.005,135.074 236.400,135.421 236.400 C 136.719 236.400,138.051 237.604,150.224 249.776 C 162.396 261.949,163.600 263.281,163.600 264.579 C 163.600 264.926,155.995 272.822,146.700 282.126 C 132.370 296.470,129.818 299.195,129.920 300.050 C 130.091 301.493,184.025 355.220,185.852 355.768 C 186.321 355.909,187.086 356.354,187.551 356.757 C 188.016 357.161,189.210 357.602,190.205 357.739 C 191.200 357.875,192.542 358.260,193.187 358.593 C 194.790 359.422,200.810 359.422,202.413 358.593 C 203.058 358.260,204.397 357.875,205.389 357.740 C 206.380 357.604,207.404 357.236,207.664 356.923 C 207.924 356.610,208.771 356.089,209.546 355.765 C 212.183 354.663,265.600 301.450,265.600 299.925 C 265.600 298.403,101.547 134.395,100.040 134.411 C 99.201 134.420,93.861 139.589,72.456 161.111 " stroke="none" fill="#1c1c1d" fill-rule="evenodd"></path><path id="path2" d="M0.000 200.000 L 0.000 400.000 200.000 400.000 L 400.000 400.000 400.000 200.000 L 400.000 0.000 200.000 0.000 L 0.000 0.000 0.000 200.000 M207.200 43.482 C 210.283 44.516,213.047 45.935,214.791 47.379 C 216.030 48.406,351.492 183.853,352.636 185.209 C 359.208 193.001,359.201 206.649,352.621 214.362 C 348.222 219.519,298.787 268.400,297.970 268.400 C 296.556 268.400,131.600 103.448,131.600 102.033 C 131.600 101.217,180.564 51.692,185.635 47.379 C 191.174 42.668,200.010 41.072,207.200 43.482 M184.526 215.526 C 263.611 294.612,268.037 299.112,267.774 300.161 C 267.501 301.247,214.395 354.800,213.591 354.800 C 213.396 354.800,212.792 355.205,212.249 355.700 C 210.302 357.475,208.978 358.298,207.600 358.591 C 206.830 358.755,205.881 359.171,205.490 359.515 C 203.972 360.855,191.623 360.851,190.104 359.510 C 189.717 359.168,188.770 358.756,188.000 358.593 C 187.230 358.430,186.119 357.915,185.531 357.448 C 184.942 356.982,183.682 356.064,182.731 355.409 C 178.921 352.788,127.600 301.094,127.600 299.879 C 127.600 298.916,130.184 296.162,144.600 281.760 C 162.508 263.870,162.976 263.303,160.600 262.400 C 160.050 262.191,159.600 261.741,159.600 261.400 C 159.600 261.059,159.150 260.609,158.600 260.400 C 158.050 260.191,157.600 259.741,157.600 259.400 C 157.600 259.059,157.150 258.609,156.600 258.400 C 156.050 258.191,155.600 257.741,155.600 257.400 C 155.600 257.059,155.150 256.609,154.600 256.400 C 154.050 256.191,153.600 255.741,153.600 255.400 C 153.600 255.059,153.150 254.609,152.600 254.400 C 152.050 254.191,151.600 253.741,151.600 253.400 C 151.600 253.059,151.150 252.609,150.600 252.400 C 150.050 252.191,149.600 251.741,149.600 251.400 C 149.600 251.059,149.150 250.609,148.600 250.400 C 148.050 250.191,147.600 249.741,147.600 249.400 C 147.600 249.059,147.150 248.609,146.600 248.400 C 146.050 248.191,145.600 247.741,145.600 247.400 C 145.600 247.059,145.150 246.609,144.600 246.400 C 144.050 246.191,143.600 245.741,143.600 245.400 C 143.600 245.059,143.150 244.609,142.600 244.400 C 142.050 244.191,141.600 243.741,141.600 243.400 C 141.600 243.059,141.150 242.609,140.600 242.400 C 140.050 242.191,139.600 241.741,139.600 241.400 C 139.600 241.059,139.175 240.618,138.655 240.421 C 138.135 240.223,137.612 239.688,137.492 239.231 C 136.884 236.904,135.850 237.773,118.240 255.400 C 103.838 269.816,101.084 272.400,100.121 272.400 C 98.906 272.400,47.212 221.079,44.591 217.269 C 43.936 216.318,43.018 215.058,42.552 214.469 C 42.085 213.881,41.570 212.770,41.407 212.000 C 41.244 211.230,40.832 210.283,40.490 209.896 C 39.149 208.377,39.145 196.028,40.485 194.510 C 40.829 194.119,41.245 193.170,41.409 192.400 C 41.702 191.022,42.525 189.698,44.300 187.751 C 44.795 187.208,45.200 186.605,45.200 186.412 C 45.200 185.863,98.022 133.142,99.175 132.540 C 99.739 132.246,100.380 132.004,100.600 132.002 C 100.821 132.001,138.587 169.587,184.526 215.526 " stroke="none" fill="#fbfbfc" fill-rule="evenodd"></path><path id="path3" d="M71.751 160.500 C 43.040 189.301,43.394 188.902,41.165 194.977 C 39.786 198.736,39.473 205.980,40.596 208.133 C 40.921 208.757,41.387 210.017,41.631 210.933 C 41.875 211.850,42.306 212.870,42.589 213.200 C 42.872 213.530,43.415 214.430,43.797 215.200 C 44.706 217.036,98.708 271.155,99.944 271.469 C 100.768 271.678,103.053 269.544,117.990 254.610 C 133.273 239.330,135.193 237.542,136.046 237.795 C 137.378 238.189,161.887 262.694,162.201 263.945 C 162.426 264.843,160.703 266.694,145.371 282.029 C 130.454 296.949,128.322 299.232,128.531 300.056 C 128.845 301.292,182.964 355.294,184.800 356.203 C 185.570 356.585,186.470 357.128,186.800 357.411 C 187.130 357.694,188.150 358.125,189.067 358.369 C 189.983 358.613,191.243 359.079,191.867 359.404 C 195.306 361.198,204.454 359.776,210.173 356.560 C 213.450 354.716,266.800 301.385,266.800 299.952 C 266.800 298.294,101.721 133.200,100.063 133.200 C 99.143 133.200,94.565 137.615,71.751 160.500 M183.340 216.660 C 249.139 282.458,265.600 299.120,265.600 299.925 C 265.600 301.450,212.183 354.663,209.546 355.765 C 208.771 356.089,207.924 356.610,207.664 356.923 C 207.404 357.236,206.380 357.604,205.389 357.740 C 204.397 357.875,203.058 358.260,202.413 358.593 C 200.810 359.422,194.790 359.422,193.187 358.593 C 192.542 358.260,191.200 357.875,190.205 357.739 C 189.210 357.602,188.016 357.161,187.551 356.757 C 187.086 356.354,186.321 355.909,185.852 355.768 C 184.025 355.220,130.091 301.493,129.920 300.050 C 129.818 299.195,132.370 296.470,146.700 282.126 C 155.995 272.822,163.600 264.926,163.600 264.579 C 163.600 263.281,162.396 261.949,150.224 249.776 C 138.051 237.604,136.719 236.400,135.421 236.400 C 135.074 236.400,127.178 244.005,117.874 253.300 C 103.530 267.630,100.805 270.182,99.950 270.080 C 98.507 269.909,44.780 215.975,44.232 214.148 C 44.091 213.679,43.646 212.914,43.243 212.449 C 42.839 211.984,42.398 210.790,42.261 209.795 C 42.125 208.800,41.740 207.458,41.407 206.813 C 40.578 205.210,40.578 199.190,41.407 197.587 C 41.740 196.942,42.125 195.603,42.260 194.611 C 42.396 193.620,42.764 192.596,43.077 192.336 C 43.390 192.076,43.911 191.229,44.235 190.454 C 45.352 187.782,98.480 134.428,100.040 134.411 C 100.897 134.402,115.639 148.958,183.340 216.660 " stroke="none" fill="#9c9c9c" fill-rule="evenodd"></path><path id="path4" d="M99.175 132.540 C 98.022 133.142,45.200 185.863,45.200 186.412 C 45.200 186.605,44.795 187.208,44.300 187.751 C 42.525 189.698,41.702 191.022,41.409 192.400 C 41.245 193.170,40.829 194.119,40.485 194.510 C 39.145 196.028,39.149 208.377,40.490 209.896 C 40.832 210.283,41.244 211.230,41.407 212.000 C 41.570 212.770,42.085 213.881,42.552 214.469 C 43.018 215.058,43.936 216.318,44.591 217.269 C 47.212 221.079,98.906 272.400,100.121 272.400 C 101.084 272.400,103.838 269.816,118.240 255.400 C 135.850 237.773,136.884 236.904,137.492 239.231 C 137.612 239.688,138.135 240.223,138.655 240.421 C 139.175 240.618,139.600 241.059,139.600 241.400 C 139.600 241.741,140.050 242.191,140.600 242.400 C 141.150 242.609,141.600 243.059,141.600 243.400 C 141.600 243.741,142.050 244.191,142.600 244.400 C 143.150 244.609,143.600 245.059,143.600 245.400 C 143.600 245.741,144.050 246.191,144.600 246.400 C 145.150 246.609,145.600 247.059,145.600 247.400 C 145.600 247.741,146.050 248.191,146.600 248.400 C 147.150 248.609,147.600 249.059,147.600 249.400 C 147.600 249.741,148.050 250.191,148.600 250.400 C 149.150 250.609,149.600 251.059,149.600 251.400 C 149.600 251.741,150.050 252.191,150.600 252.400 C 151.150 252.609,151.600 253.059,151.600 253.400 C 151.600 253.741,152.050 254.191,152.600 254.400 C 153.150 254.609,153.600 255.059,153.600 255.400 C 153.600 255.741,154.050 256.191,154.600 256.400 C 155.150 256.609,155.600 257.059,155.600 257.400 C 155.600 257.741,156.050 258.191,156.600 258.400 C 157.150 258.609,157.600 259.059,157.600 259.400 C 157.600 259.741,158.050 260.191,158.600 260.400 C 159.150 260.609,159.600 261.059,159.600 261.400 C 159.600 261.741,160.050 262.191,160.600 262.400 C 162.976 263.303,162.508 263.870,144.600 281.760 C 130.184 296.162,127.600 298.916,127.600 299.879 C 127.600 301.094,178.921 352.788,182.731 355.409 C 183.682 356.064,184.942 356.982,185.531 357.448 C 186.119 357.915,187.230 358.430,188.000 358.593 C 188.770 358.756,189.717 359.168,190.104 359.510 C 191.623 360.851,203.972 360.855,205.490 359.515 C 205.881 359.171,206.830 358.755,207.600 358.591 C 208.978 358.298,210.302 357.475,212.249 355.700 C 212.792 355.205,213.396 354.800,213.591 354.800 C 214.395 354.800,267.501 301.247,267.774 300.161 C 268.044 299.087,101.930 131.994,100.600 132.002 C 100.380 132.004,99.739 132.246,99.175 132.540 M183.980 216.020 C 254.443 286.483,266.800 299.006,266.800 299.952 C 266.800 301.385,213.450 354.716,210.173 356.560 C 204.454 359.776,195.306 361.198,191.867 359.404 C 191.243 359.079,189.983 358.613,189.067 358.369 C 188.150 358.125,187.130 357.694,186.800 357.411 C 186.470 357.128,185.570 356.585,184.800 356.203 C 182.964 355.294,128.845 301.292,128.531 300.056 C 128.322 299.232,130.454 296.949,145.371 282.029 C 160.703 266.694,162.426 264.843,162.201 263.945 C 161.887 262.694,137.378 238.189,136.046 237.795 C 135.193 237.542,133.273 239.330,117.990 254.610 C 103.053 269.544,100.768 271.678,99.944 271.469 C 98.708 271.155,44.706 217.036,43.797 215.200 C 43.415 214.430,42.872 213.530,42.589 213.200 C 42.306 212.870,41.875 211.850,41.631 210.933 C 41.387 210.017,40.921 208.757,40.596 208.133 C 38.806 204.701,40.206 195.654,43.433 189.800 C 45.215 186.568,98.611 133.200,100.063 133.200 C 100.989 133.200,114.074 146.113,183.980 216.020 " stroke="none" fill="#b1b6b9" fill-rule="evenodd"></path></g></svg>